<svg id="Capa_1" enable-background="new 0 0 512 512" height="512" viewBox="0 0 512 512" width="512" xmlns="http://www.w3.org/2000/svg"><path d="m451 242v-30h-90v30h-61v105.041c-12.544-9.438-28.129-15.041-45-15.041h-45v-10.51c32.45-15.431 54.847-46.438 59.218-81.792 17.868-5.964 30.782-22.851 30.782-42.698v-122c0-24.813-20.187-45-45-45h-90c-8.271 0-15-6.729-15-15v-15h-60c-33.084 0-60 26.916-60 60 0 22.159 12.084 41.537 30 51.928v42.642c-17.461 6.191-30 22.873-30 42.43 0 19.847 12.914 36.734 30.782 42.699 4.371 35.353 26.768 66.361 59.218 81.791v10.51h-45c-41.355 0-75 33.645-75 75v105h512v-270zm-60 0h30v30h-30zm-301-212h32.57c6.191 17.461 22.874 30 42.43 30h90c8.271 0 15 6.729 15 15v79.57c-4.693-1.664-9.743-2.57-15-2.57-8.271 0-15-6.729-15-15v-47h-150c-16.542 0-30-13.458-30-30s13.458-30 30-30zm0 197v-15h-15c-8.271 0-15-6.729-15-15s6.729-15 15-15h15v-62h120v17c0 24.813 20.187 45 45 45 8.271 0 15 6.729 15 15s-6.729 15-15 15h-15v15c0 31.445-20.104 59.718-50.024 70.355l-9.976 3.546v46.099c0 8.271-6.729 15-15 15s-15-6.729-15-15v-46.099l-9.976-3.546c-29.92-10.637-50.024-38.91-50.024-70.355zm-15 135h47.58c6.192 17.459 22.865 30 42.42 30s36.228-12.541 42.42-30h47.58c24.813 0 45 20.187 45 45v15h-60v60h-150v-60h-60v-15c0-24.813 20.187-45 45-45zm-45 90h30v30h-30zm240 30v-30h30v30zm212 0h-152v-210h31v30h90v-30h31z"/><path d="m361 332h90v30h-90z"/><path d="m361 392h90v30h-90z"/></svg>